<svg id="frappe-symbols" aria-hidden="true" style="position: absolute; width: 0; height: 0; overflow: hidden;" class="d-block" xmlns="http://www.w3.org/2000/svg">
    <symbol id="icon-hvac" viewBox="0 0 16 16" xmlns="http://www.w3.org/2000/svg">
        <path d="M10.73,7.63c0,1.66-1.39,3-3.1,3s-3.1-1.34-3.1-3,1.39-3,3.1-3,3.1,1.34,3.1,3ZM7.62,4.63V.12M7.63,2.6L9.82.48M7.62,2.6L5.43.48M4.94,6.13L.9,3.88M3.12,5.11l-.8-2.89M3.12,5.11L.13,5.89M4.94,9.13L.9,11.38M3.12,10.14l-3-.78M3.12,10.14l-.8,2.89M7.62,10.63v4.5M7.62,12.65l-2.19,2.12M7.63,12.65l2.19,2.12M10.31,9.13l4.03,2.25M12.13,10.14l.8,2.89M12.13,10.14l3-.78M10.31,6.13l4.03-2.25M12.13,5.11l3,.78M12.13,5.11l.8-2.89" stroke="var(--icon-stroke)" stroke-linecap="round" stroke-linejoin="round"/>
    </symbol>
    <symbol id="icon-history" viewBox="0 0 16 16" xmlns="http://www.w3.org/2000/svg">
        <svg xmlns="http://www.w3.org/2000/svg" viewBox="0 0 16 16"><path d="m.427 1.927 1.215 1.215a8.002 8.002 0 1 1-1.6 5.685.75.75 0 1 1 1.493-.154 6.5 6.5 0 1 0 1.18-4.458l1.358 1.358A.25.25 0 0 1 3.896 6H.25A.25.25 0 0 1 0 5.75V2.104a.25.25 0 0 1 .427-.177ZM7.75 4a.75.75 0 0 1 .75.75v2.992l2.028.812a.75.75 0 0 1-.557 1.392l-2.5-1A.751.751 0 0 1 7 8.25v-3.5A.75.75 0 0 1 7.75 4Z" fill="var(--icon-stroke)"></path></svg>
    </symbol>
    <symbol id="icon-stopwatch" viewBox="0 0 16 16" xmlns="http://www.w3.org/2000/svg">
      <svg xmlns="http://www.w3.org/2000/svg" viewBox="0 0 16 16"><path d="M5.75.75A.75.75 0 0 1 6.5 0h3a.75.75 0 0 1 0 1.5h-.75v1l-.001.041a6.724 6.724 0 0 1 3.464 1.435l.007-.006.75-.75a.749.749 0 0 1 1.275.326.749.749 0 0 1-.215.734l-.75.75-.006.007a6.75 6.75 0 1 1-10.548 0L2.72 5.03l-.75-.75a.751.751 0 0 1 .018-1.042.751.751 0 0 1 1.042-.018l.75.75.007.006A6.72 6.72 0 0 1 7.25 2.541V1.5H6.5a.75.75 0 0 1-.75-.75ZM8 14.5a5.25 5.25 0 1 0-.001-10.501A5.25 5.25 0 0 0 8 14.5Zm.389-6.7 1.33-1.33a.75.75 0 1 1 1.061 1.06L9.45 8.861A1.503 1.503 0 0 1 8 10.75a1.499 1.499 0 1 1 .389-2.95Z" fill="var(--icon-stroke)"></path></svg>
    </symbol>
</svg>